<?xml version="1.0" standalone="no"?>
<!DOCTYPE svg PUBLIC "-//W3C//DTD SVG 20010904//EN"
 "http://www.w3.org/TR/2001/REC-SVG-20010904/DTD/svg10.dtd">
<svg version="1.0" xmlns="http://www.w3.org/2000/svg"
 width="989.000000pt" height="252.000000pt" viewBox="0 0 989.000000 252.000000"
 preserveAspectRatio="xMidYMid meet">

<g transform="translate(0.000000,252.000000) scale(0.100000,-0.100000)"
fill="#000000" stroke="none">
<path d="M890 2402 c-107 -60 -271 -153 -365 -207 -93 -54 -210 -122 -260
-150 -50 -28 -126 -74 -170 -101 l-80 -50 -3 -636 -2 -637 72 -41 c40 -23 118
-68 173 -100 55 -33 120 -70 145 -84 25 -13 97 -54 159 -90 63 -37 139 -81
170 -98 31 -17 123 -69 206 -115 82 -45 156 -83 165 -83 35 0 245 114 620 335
63 38 171 100 240 138 69 38 150 86 180 106 l55 36 2 640 3 640 -117 60 c-64
33 -225 125 -357 204 -450 269 -582 341 -623 341 -10 0 -106 -49 -213 -108z
m250 -1163 l0 -379 -81 0 -81 0 3 214 c3 118 3 213 2 212 -2 -1 -18 -53 -38
-116 -19 -62 -39 -116 -44 -119 -5 -3 -37 -4 -71 -1 l-62 5 -37 111 -36 111 3
-208 4 -209 -81 0 -81 0 0 380 0 380 84 0 84 0 17 -42 c10 -24 35 -97 57 -163
36 -110 68 -174 68 -135 0 11 78 227 114 315 l13 30 81 -3 82 -4 0 -379z m237
377 c2 -2 6 -65 10 -142 5 -119 8 -135 18 -109 6 17 31 80 56 142 l44 112 83
3 84 3 -6 -29 c-4 -16 -31 -92 -62 -168 -30 -76 -58 -153 -61 -171 -5 -33 5
-60 128 -346 11 -24 18 -45 17 -46 -2 -2 -42 -5 -90 -7 l-87 -4 -41 100 c-23
56 -51 125 -63 155 l-22 54 -3 -151 -3 -152 -79 0 -80 0 0 378 c0 208 2 381 4
383 5 4 149 -1 153 -5z"/>
<path d="M3675 1743 c-83 -22 -132 -83 -142 -175 -11 -108 33 -186 129 -227
102 -44 122 -56 137 -82 28 -50 -7 -109 -64 -109 -40 0 -71 33 -81 86 l-6 35
-47 -6 c-103 -14 -102 -12 -74 -102 33 -104 100 -153 209 -153 125 0 214 101
214 243 0 117 -59 193 -186 236 -102 34 -123 60 -88 109 30 43 114 15 114 -37
0 -29 13 -33 80 -25 57 6 60 8 60 33 0 15 -12 52 -27 82 -21 41 -38 59 -68 73
-39 20 -122 29 -160 19z"/>
<path d="M7936 1740 c-15 -5 -46 -21 -67 -36 -142 -98 -153 -503 -18 -633 82
-80 216 -82 292 -5 35 35 50 63 71 132 l15 54 -62 28 -62 28 -18 -51 c-26 -78
-73 -106 -128 -77 -42 23 -54 67 -54 201 0 122 1 127 28 162 49 64 112 60 144
-10 10 -21 18 -39 19 -41 2 -4 108 31 117 38 15 13 -35 124 -72 161 -52 52
-131 71 -205 49z"/>
<path d="M2310 1375 l0 -355 60 0 60 0 1 273 c0 172 4 263 10 247 8 -24 40
-200 76 -417 l17 -103 52 0 c61 0 53 -21 95 230 17 96 36 207 42 245 11 64 12
46 15 -202 l2 -273 60 0 60 0 0 355 0 355 -94 0 c-82 0 -95 -2 -100 -17 -7
-25 -42 -221 -58 -320 -7 -46 -16 -83 -20 -83 -4 0 -8 3 -8 8 0 13 -39 245
-49 292 -5 25 -13 62 -16 83 l-6 37 -99 0 -100 0 0 -355z"/>
<path d="M2960 1532 c0 -306 20 -409 92 -474 54 -48 181 -62 253 -27 36 17 90
87 106 137 8 24 14 132 16 300 l4 262 -70 0 -71 0 -1 -227 c0 -150 -4 -240
-12 -262 -28 -80 -114 -92 -149 -21 -16 30 -18 66 -18 273 l0 237 -75 0 -75 0
0 -198z"/>
<path d="M4000 1645 l0 -85 74 0 74 0 7 -122 c4 -68 5 -189 3 -271 l-3 -147
73 0 72 0 0 270 0 270 75 0 75 0 0 85 0 85 -225 0 -225 0 0 -85z"/>
<path d="M4540 1375 l0 -355 70 0 70 0 0 355 0 355 -70 0 -70 0 0 -355z"/>
<path d="M4800 1375 l0 -355 70 0 70 0 0 88 c0 88 0 89 42 147 l42 58 13 -29
c7 -16 31 -82 54 -146 l41 -118 89 0 c49 0 89 2 89 4 0 2 -40 99 -90 215 -49
117 -90 219 -90 226 0 8 36 68 80 134 44 65 80 122 80 125 0 3 -42 6 -94 6
l-93 0 -63 -107 c-34 -60 -68 -118 -74 -130 -6 -13 -14 -23 -18 -23 -5 0 -8
59 -8 130 l0 130 -70 0 -70 0 0 -355z"/>
<path d="M5482 1653 c-11 -43 -50 -193 -86 -333 -36 -140 -69 -265 -72 -277
-6 -22 -4 -23 68 -23 l75 0 13 60 13 60 87 0 88 0 14 -57 14 -58 76 -3 77 -3
-54 208 c-30 114 -71 274 -91 356 l-38 147 -81 0 -82 0 -21 -77z m108 -111 c0
-7 29 -154 46 -229 4 -22 1 -23 -51 -23 -37 0 -55 4 -55 13 -1 29 46 247 53
247 4 0 7 -4 7 -8z"/>
<path d="M6130 1375 l0 -355 75 0 75 0 0 86 c0 81 2 90 36 145 19 33 39 59 43
59 4 0 30 -64 57 -142 l49 -143 88 -3 c48 -1 87 1 87 6 0 9 -31 84 -139 342
-45 108 -49 89 48 235 37 55 71 106 75 113 6 10 -13 12 -90 10 l-98 -3 -32
-55 c-18 -30 -52 -89 -76 -130 l-43 -75 -3 133 -3 132 -74 0 -75 0 0 -355z"/>
<path d="M6700 1375 l0 -355 205 0 205 0 0 80 0 80 -130 0 -130 0 0 75 0 75
120 0 120 0 0 70 0 70 -120 0 -120 0 0 60 0 60 128 0 127 0 -3 70 -4 70 -199
0 -199 0 0 -355z"/>
<path d="M7200 1375 l0 -355 70 0 70 0 0 197 c0 217 0 217 53 97 15 -34 52
-114 82 -178 l55 -116 70 0 70 0 0 355 0 355 -70 0 -70 0 -2 -197 c-2 -159 -5
-193 -14 -173 -7 14 -37 77 -67 140 -30 63 -66 141 -80 173 l-27 57 -70 0 -70
0 0 -355z"/>
<path d="M8427 1678 c-20 -69 -167 -645 -167 -653 0 -3 32 -5 72 -3 l72 3 14
58 14 57 88 0 87 0 13 -60 13 -60 73 0 c53 0 74 4 74 13 0 6 -40 165 -88 352
l-87 340 -82 3 -81 3 -15 -53z m142 -360 c1 -27 -1 -28 -53 -28 -46 0 -54 3
-50 18 2 9 13 64 25 122 11 58 24 109 27 115 6 10 50 -184 51 -227z"/>
<path d="M8840 1375 l0 -355 70 0 70 0 2 198 3 197 35 -74 c19 -41 61 -129 92
-195 l57 -121 71 -3 70 -3 0 356 0 355 -70 0 -70 0 -1 -197 -1 -198 -51 106
c-29 58 -71 147 -94 197 l-41 92 -71 0 -71 0 0 -355z"/>
<path d="M9536 1718 c-3 -7 -18 -67 -35 -133 -16 -66 -46 -183 -66 -260 -51
-194 -75 -289 -75 -297 0 -5 33 -8 74 -8 l74 0 7 43 c13 81 7 77 105 77 l89 0
13 -60 12 -60 73 0 c40 0 73 4 73 10 0 5 -21 89 -46 187 -25 98 -64 252 -87
343 l-42 165 -83 3 c-60 2 -83 -1 -86 -10z m116 -305 l25 -123 -58 0 c-33 0
-59 2 -59 5 0 3 11 53 25 111 14 58 25 115 25 127 0 49 19 -6 42 -120z"/>
<path d="M3946 963 c-28 -5 -29 -5 -22 -56 3 -29 6 -123 6 -209 l0 -158 40 0
40 0 0 215 c0 238 6 218 -64 208z"/>
<path d="M6233 963 c-23 -4 -23 -5 -23 -214 l0 -209 45 0 44 0 3 69 3 70 46
-67 c44 -65 47 -67 92 -70 26 -2 47 0 47 3 0 4 -15 24 -33 46 -19 21 -42 54
-52 73 l-19 35 43 50 42 51 -45 0 c-43 0 -48 -3 -83 -51 l-38 -50 -3 135 c-3
150 1 143 -69 129z"/>
<path d="M7033 963 c-22 -4 -23 -10 -23 -81 l0 -77 -61 0 c-56 0 -63 -3 -89
-32 -56 -62 -49 -186 13 -223 36 -22 87 -26 119 -9 15 8 22 8 28 -1 5 -7 20
-9 44 -5 l36 7 0 214 0 214 -22 -1 c-13 -1 -33 -4 -45 -6z m-25 -289 c3 -69 2
-72 -22 -78 -33 -8 -51 0 -65 30 -17 37 -13 68 10 98 15 20 29 26 48 24 25 -3
26 -6 29 -74z"/>
<path d="M7533 963 c-23 -4 -23 -5 -23 -214 l0 -209 40 0 39 0 3 72 3 72 49
-72 50 -72 49 0 c47 0 49 1 36 18 -8 9 -35 43 -58 75 l-44 58 33 42 c18 23 38
48 43 55 7 9 -1 12 -36 12 -42 0 -46 -2 -78 -50 -19 -27 -37 -50 -41 -50 -5 0
-8 61 -8 135 0 147 3 140 -57 128z"/>
<path d="M4165 805 c-102 -36 -128 -167 -48 -242 37 -36 86 -44 123 -20 16 9
22 9 28 0 6 -10 16 -10 45 -1 l37 11 0 122 0 123 -57 4 c-32 3 -65 8 -73 11
-8 3 -33 0 -55 -8z m93 -127 c3 -59 0 -68 -18 -78 -40 -22 -80 15 -80 74 0 37
38 78 69 74 25 -3 26 -6 29 -70z"/>
<path d="M4775 809 c-17 -5 -44 -22 -60 -39 -27 -29 -30 -37 -30 -101 0 -69 1
-71 37 -105 40 -36 81 -44 120 -23 15 8 22 8 28 -1 5 -9 16 -9 46 0 l39 12 -3
122 -3 123 -57 6 c-31 3 -64 7 -72 10 -8 3 -29 1 -45 -4z m93 -129 c2 -52 0
-67 -14 -77 -25 -18 -41 -16 -64 7 -46 46 -11 145 48 138 26 -3 27 -6 30 -68z"/>
<path d="M5443 809 c-95 -28 -123 -171 -48 -246 35 -35 77 -43 116 -22 14 7
24 7 33 0 8 -7 24 -7 50 1 31 10 36 15 32 32 -3 12 -6 67 -6 122 l0 101 -57 6
c-32 3 -65 7 -73 10 -8 3 -29 1 -47 -4z m95 -129 c2 -52 0 -67 -14 -77 -25
-18 -41 -16 -64 7 -46 46 -11 145 48 138 26 -3 27 -6 30 -68z"/>
<path d="M7897 808 c-43 -11 -81 -55 -92 -105 -17 -84 41 -173 113 -173 21 0
43 5 50 12 8 8 15 8 25 0 10 -8 23 -8 50 0 l37 11 0 122 0 123 -57 4 c-32 3
-65 8 -73 11 -8 2 -32 0 -53 -5z m91 -130 c3 -59 0 -68 -18 -78 -40 -22 -80
15 -80 74 0 37 38 78 69 74 25 -3 26 -6 29 -70z"/>
<path d="M8235 809 c-17 -5 -44 -22 -60 -39 -27 -29 -30 -37 -30 -101 0 -69 1
-71 37 -105 40 -36 81 -44 120 -23 15 8 22 8 28 -1 5 -9 16 -9 46 0 l39 12 -3
122 -3 123 -57 6 c-31 3 -64 7 -72 10 -8 3 -29 1 -45 -4z m85 -133 c0 -58 -3
-75 -16 -80 -25 -9 -33 -7 -54 14 -44 44 -13 140 45 140 24 0 25 -2 25 -74z"/>
<path d="M3333 803 l-53 -4 0 -195 0 -194 28 6 c51 11 52 12 52 64 l0 50 40 0
c96 0 150 54 150 149 0 49 -3 57 -39 92 -42 42 -38 41 -178 32z m111 -75 c19
-27 21 -88 4 -111 -7 -9 -28 -20 -45 -23 l-33 -6 0 81 0 81 29 0 c20 0 35 -8
45 -22z"/>
<path d="M3662 789 c-43 -28 -62 -67 -62 -127 0 -105 107 -163 215 -118 30 13
35 20 35 47 0 26 -3 30 -17 24 -73 -29 -126 -27 -143 5 -19 36 -12 40 79 40
73 0 90 3 95 16 12 31 -6 84 -36 109 -39 33 -117 35 -166 4z m116 -45 c38 -26
27 -42 -33 -49 -31 -4 -58 -5 -61 -2 -11 11 8 49 29 57 32 13 40 12 65 -6z"/>
<path d="M5170 803 c-8 -3 -25 -15 -37 -26 l-23 -20 0 21 c0 19 -6 22 -40 22
l-40 0 0 -130 0 -130 45 0 45 0 0 83 c0 69 3 87 18 100 23 21 36 21 56 1 12
-12 16 -36 16 -100 l0 -84 40 0 40 0 0 114 c0 112 -1 115 -26 135 -26 20 -62
26 -94 14z"/>
<path d="M5816 785 c-34 -23 -36 -23 -36 -5 0 17 -7 20 -40 20 l-40 0 0 -130
0 -130 45 0 45 0 0 78 c0 105 31 150 74 106 12 -12 16 -36 16 -100 l0 -84 40
0 40 0 0 110 c0 104 -1 112 -25 135 -31 32 -72 32 -119 0z"/>
<path d="M6581 792 c-50 -27 -73 -75 -68 -139 4 -59 24 -88 74 -109 39 -17 83
-18 133 -3 34 10 39 16 42 49 l3 37 -40 -18 c-52 -24 -76 -24 -109 2 -48 38
-35 48 67 51 l92 3 3 29 c5 40 -14 79 -47 99 -38 22 -108 22 -150 -1z m107
-48 c33 -23 27 -41 -15 -48 -87 -14 -102 -4 -58 39 28 29 42 31 73 9z"/>
<path d="M8630 803 c-8 -3 -25 -15 -37 -26 l-23 -20 0 21 c0 19 -6 22 -40 22
l-40 0 0 -130 0 -130 45 0 45 0 0 83 c0 70 3 87 19 101 27 25 57 13 65 -26 3
-17 6 -59 6 -94 l0 -64 40 0 40 0 0 110 c0 104 -1 112 -25 135 -23 24 -60 31
-95 18z"/>
<path d="M4390 797 c0 -3 12 -36 26 -73 64 -170 67 -183 53 -217 -7 -17 -26
-46 -43 -65 l-29 -33 49 3 49 3 77 185 c43 102 78 189 78 193 0 5 -16 7 -36 5
-34 -3 -38 -6 -56 -58 -11 -30 -24 -59 -28 -63 -4 -5 -16 20 -27 55 l-18 63
-48 3 c-26 2 -47 1 -47 -1z"/>
<path d="M7170 690 c0 -104 1 -112 25 -135 33 -34 84 -33 124 1 l31 26 0 -27
c0 -25 2 -27 31 -21 17 3 35 6 40 6 5 0 9 59 9 130 l0 130 -45 0 -45 0 0 -89
c0 -96 -9 -115 -52 -109 -22 3 -23 7 -26 101 l-3 97 -44 0 -45 0 0 -110z"/>
</g>
</svg>
